<?xml version="1.0" encoding="iso-8859-1"?>
<!-- Generator: Adobe Illustrator 19.0.0, SVG Export Plug-In . SVG Version: 6.00 Build 0)  -->
<svg version="1.1" id="Layer_1" xmlns="http://www.w3.org/2000/svg" xmlns:xlink="http://www.w3.org/1999/xlink" x="0px" y="0px"
	 viewBox="0 0 512 512" style="enable-background:new 0 0 512 512;" xml:space="preserve">
<path style="fill:#314E55;" d="M512,109.714c0-56.592-110.051-99.265-256-99.265S0,53.122,0,109.714
	c0,3.655,0.478,7.249,1.376,10.78C0.575,121.973,0,123.586,0,125.388v62.694c0,1.633,0.408,3.173,1.122,4.541
	c10.815,46.482,101.084,82.196,218.306,88.43v128.936c-36.767,5.146-73.143,19.136-73.143,44.542
	c0,30.867,55.194,47.02,109.714,47.02s109.714-16.153,109.714-47.02c0-21.594-27.322-38.161-73.143-44.534V281.054
	c116.96-6.221,207.098-41.791,218.235-88.125c0.765-1.449,1.194-3.102,1.194-4.847v-62.694c0-1.802-0.575-3.415-1.376-4.894
	C511.522,116.963,512,113.369,512,109.714z"/>
<path style="fill:#C59981;" d="M256,31.347c138.551,0,235.102,41.296,235.102,78.367S394.551,188.082,256,188.082
	S20.898,146.786,20.898,109.714S117.449,31.347,256,31.347z"/>
<g>
	<path style="fill:#D8D8D8;" d="M344.816,454.531c0,9.214-33.725,26.122-88.816,26.122s-88.816-16.908-88.816-26.122
		c0-5.634,16.08-17.776,52.245-23.334v18.109c0,5.775,4.674,10.449,10.449,10.449h52.245c5.775,0,10.449-4.674,10.449-10.449
		v-18.114C329.248,436.844,344.816,448.968,344.816,454.531z"/>
	<rect x="240.327" y="282.122" style="fill:#D8D8D8;" width="31.347" height="156.735"/>
</g>
<path style="fill:#C59981;" d="M490.816,186.429C485.02,222.551,389.286,261.224,256,261.224S26.98,222.551,21.184,186.429
	c-0.072-0.429-0.163-0.847-0.286-1.245v-34.825C59.446,185.53,147.838,208.98,256,208.98s196.554-23.45,235.102-58.621v34.794
	C490.979,185.561,490.888,185.99,490.816,186.429z"/>
<g>
	<path style="fill:#314E55;" d="M99.275,109.714c1.826,0,3.684-0.48,5.367-1.49l52.245-31.347c4.949-2.969,6.551-9.388,3.582-14.337
		c-2.969-4.939-9.377-6.561-14.337-3.582L93.888,90.306c-4.949,2.969-6.551,9.388-3.582,14.337
		C92.265,107.908,95.724,109.714,99.275,109.714z"/>
	<path style="fill:#314E55;" d="M106.02,141.286c1.969,3.225,5.408,5,8.929,5c1.857,0,3.735-0.49,5.439-1.531l94.041-57.469
		c4.929-3.01,6.48-9.439,3.469-14.367c-3-4.929-9.429-6.48-14.367-3.469l-94.041,57.469
		C104.561,129.929,103.01,136.357,106.02,141.286z"/>
</g>
<g>
</g>
<g>
</g>
<g>
</g>
<g>
</g>
<g>
</g>
<g>
</g>
<g>
</g>
<g>
</g>
<g>
</g>
<g>
</g>
<g>
</g>
<g>
</g>
<g>
</g>
<g>
</g>
<g>
</g>
</svg>
