<?xml version="1.0" encoding="utf-8"?>
<svg id="master-artboard" viewBox="0 0 205.30075073242188 248.36392211914062" version="1.1" xmlns="http://www.w3.org/2000/svg" x="0px" y="0px" style="enable-background:new 0 0 1096 780;" width="205.30075073242188px" height="248.36392211914062px"><rect id="ee-background" x="0" y="0" width="205.30075073242188" height="248.36392211914062" style="fill: white; fill-opacity: 0; pointer-events: none;"/>

<path d="M 0.4 0 H 1096.4 V 780 H 0.4 V 0 Z" class="st0" style="fill: rgb(188, 230, 251); fill-opacity: 0;" transform="matrix(1, 0, 0, 1, -66.80244445800781, -108.55397033691406)"/><path d="M 106.4000015258789 184.60000610351562 L 107.9000015258789 184.60000610351562 L 110.0999984741211 184.60000610351562 L 110.0999984741211 128.89999389648438 L 106.4000015258789 128.89999389648438 Z" class="st4" style="fill: rgb(142, 90, 165);" transform="matrix(1, 0, 0, 1, -66.80244445800781, -108.55397033691406)"/><path d="M 167.899994 128.899994 H 169.399994 V 225.399994 H 167.899994 V 128.899994 Z" class="st4" style="fill: rgb(142, 90, 165);" transform="matrix(1, 0, 0, 1, -66.80244445800781, -108.55397033691406)"/><path d="M 110.0999984741211 128.89999389648438 L 167.89999389648438 128.89999389648438 L 169.39999389648438 128.89999389648438 L 169.60000610351562 128.89999389648438 L 169.60000610351562 110.19999694824219 L 79.80000305175781 110.19999694824219 L 79.80000305175781 128.89999389648438 L 106.4000015258789 128.89999389648438 Z" class="st11" style="fill: rgb(146, 39, 143);" transform="matrix(1, 0, 0, 1, -66.80244445800781, -108.55397033691406)"/><path class="st12" d="M169.6,128.9h-0.3v96.5h0l0,1v6.2l0.3,120.8h28.4l0,0c-1.3-23.5-19.4-79.2-26-98.7c2.9-1,5.1-3.7,5.1-6.9&#10;&#9;&#9;&#9;c0-2.5-1.4-4.7-3.3-6l4.9-11.6h2l0,0v-4.7l0,0h-9.3v-96.5h50.9v36.4h-9.2v4.7h2l4.9,11.6c-2,1.3-3.3,3.5-3.3,6&#10;&#9;&#9;&#9;c0,3.3,2.1,5.9,5.1,6.9c-6.6,19.5-24.7,75.3-26,98.7h28.3h28.4h0c-1.3-23.5-19.4-79.2-26-98.7c2.9-1,5.1-3.7,5.1-6.9&#10;&#9;&#9;&#9;c0-2.5-1.4-4.7-3.3-6l4.9-11.6h2h0v-4.7h0h-9.3v-36.4h33.7v-18.7h-90.1V128.9z" style="fill: rgb(122, 24, 120);" transform="matrix(1, 0, 0, 1, -66.80244445800781, -108.55397033691406)"/><path d="M 141.399994 353.399994 L 141.300003 353.399994" class="st14" style="fill: none; stroke: rgb(146, 39, 143); stroke-width: 0; stroke-linecap: round; stroke-linejoin: round;" transform="matrix(1, 0, 0, 1, -66.80244445800781, -108.55397033691406)"/><path class="st11" d="M169.4,226.4l0-1h0h-1.5h-9.2v4.7h2l4.9,11.6c-2,1.3-3.3,3.5-3.3,6c0,3.3,2.1,5.9,5.1,6.9&#10;&#9;&#9;&#9;c-6.5,19.5-24.7,75.3-26,98.7h28.3l-0.3-120.8V226.4z" style="fill: rgb(146, 39, 143);" transform="matrix(1, 0, 0, 1, -66.80244445800781, -108.55397033691406)"/><path d="M 195.800003 293.299988 L 195.899994 293.299988" class="st15" style="fill: none; stroke: rgb(122, 24, 120); stroke-width: 0; stroke-linecap: round; stroke-linejoin: round;" transform="matrix(1, 0, 0, 1, -66.80244445800781, -108.55397033691406)"/><path d="M 79.900002 312.600006 L 79.800003 312.600006" class="st14" style="fill: none; stroke: rgb(146, 39, 143); stroke-width: 0; stroke-linecap: round; stroke-linejoin: round;" transform="matrix(1, 0, 0, 1, -66.80244445800781, -108.55397033691406)"/><path class="st11" d="M106.4,184.6h-9.2v4.7h2l4.9,11.6c-2,1.3-3.3,3.5-3.3,6c0,3.3,2.1,5.9,5.1,6.9c-6.6,19.5-24.7,75.3-26,98.7&#10;&#9;&#9;&#9;h28.3h28.4h0c-1.3-23.5-19.4-79.2-26-98.7c2.9-1,5.1-3.7,5.1-6.9c0-2.5-1.4-4.7-3.3-6l4.9-11.6h2h0v-4.7h0h-9.3h-2.1H106.4z" style="fill: rgb(146, 39, 143);" transform="matrix(1, 0, 0, 1, -66.80244445800781, -108.55397033691406)"/>

</svg>