<svg xmlns="http://www.w3.org/2000/svg" viewBox="0 0 501.53 359.01"><defs><style>.cls-1{fill:#f2f2f2;}.cls-2{fill:#e5e5e5;}.cls-3{fill:#ccc;}.cls-4{fill:#1a1a1a;stroke:#000;stroke-miterlimit:10;}.cls-5{fill:#151515;}.cls-6{fill:#fff;}.cls-7{fill:#111;}</style></defs><title>Ресурс 2</title><g id="Слой_2" data-name="Слой 2"><g id="Layer_1" data-name="Layer 1"><rect class="cls-1" x="206.09" y="305.29" width="89.36" height="48.94"/><rect class="cls-2" x="150.77" y="354.22" width="200" height="4.79"/><rect class="cls-3" x="206.09" y="305.35" width="89.36" height="18.09"/><path class="cls-4" d="M286.85,305.29H22.5a22,22,0,0,1-22-22V22.5"/><path class="cls-4" d="M.5,22.5a22,22,0,0,1,22-22H479a22,22,0,0,1,22,22V283.29a22,22,0,0,1-22,22H286.85"/><path class="cls-5" d="M501,283.29a22,22,0,0,1-22,22H22.5C10.35,305.29,479,.5,479,.5a22,22,0,0,1,22,22Z"/><rect class="cls-6" x="21.75" y="20.68" width="458.04" height="262.3"/><path d="M479.29,21.18v261.3h-457V21.18h457m1-1h-459v263.3h459V20.18Z"/><circle class="cls-7" cx="250.77" cy="11.07" r="4.79"/><circle cx="250.77" cy="11.14" r="2.13"/></g></g></svg>