<?xml version="1.0" encoding="utf-8"?>
<!-- Generator: Adobe Illustrator 21.1.0, SVG Export Plug-In . SVG Version: 6.00 Build 0)  -->
<svg version="1.1" id="Слой_1" xmlns="http://www.w3.org/2000/svg" xmlns:xlink="http://www.w3.org/1999/xlink" x="0px" y="0px"
	 viewBox="0 0 290.1 512" style="enable-background:new 0 0 290.1 512;" xml:space="preserve">
<style type="text/css">
	.st0{fill:#FFFFFF;}
</style>
<title>Ресурс 1</title>
<g id="Слой_2">
	<g id="Capa_1">
		<path class="st0" d="M252.5,0h-215C16.8,0.1,0,16.9,0,37.6v436.8C0,495.2,16.8,512,37.6,512h214.9c20.8,0,37.6-16.8,37.6-37.6
			V37.6C290.1,16.8,273.3,0,252.5,0z M17.1,68.3h256v324.3h-256L17.1,68.3z M37.6,17.1h214.9c11.3,0,20.5,9.2,20.5,20.5v13.6h-256
			V37.6C17.1,26.3,26.3,17.1,37.6,17.1z M252.6,494.9h-215c-11.3,0-20.5-9.2-20.5-20.5v-64.8h256v64.8
			C273.1,485.7,263.9,494.9,252.6,494.9L252.6,494.9z"/>
		<path class="st0" d="M145.1,418.1c-18.8,0-34.1,15.3-34.1,34.1s15.3,34.1,34.1,34.1s34.1-15.3,34.1-34.1
			C179.2,433.4,163.9,418.2,145.1,418.1z M145.1,469.3c-9.4,0-17.1-7.6-17.1-17.1s7.6-17.1,17.1-17.1c9.4,0,17.1,7.6,17.1,17.1
			C162.1,461.7,154.5,469.3,145.1,469.3L145.1,469.3z"/>
		<path class="st0" d="M110.9,42.7h34.1c4.7,0,8.5-3.8,8.5-8.5s-3.8-8.5-8.5-8.5h-34.1c-4.7,0-8.5,3.8-8.5,8.5
			S106.2,42.7,110.9,42.7z"/>
		<path class="st0" d="M170.7,42.7h8.5c4.7,0,8.5-3.8,8.5-8.5s-3.8-8.5-8.5-8.5l0,0h-8.5c-4.7,0-8.5,3.8-8.5,8.5
			S166,42.7,170.7,42.7z"/>
		<path class="st0" d="M213.3,179.2c23.6,0.4,43-18.4,43.3-42s-18.4-43-42-43.3c-0.4,0-0.9,0-1.3,0H76.8
			c-23.6,0-42.6,19.1-42.7,42.7v88.9l46.2-46.2H213.3z M51.2,184.2v-47.7c0-14.1,11.5-25.6,25.6-25.6h136.5
			c14.1,0,25.6,11.5,25.6,25.6s-11.5,25.6-25.6,25.6H73.3L51.2,184.2z"/>
		<path class="st0" d="M213.3,238.9H76.8c-23.6,0.4-42.4,19.8-42,43.3c0.4,23.1,19,41.7,42,42h133l46.2,46.2v-88.9
			C256,258,236.9,239,213.3,238.9z M238.9,329.3l-22.1-22.1H76.8c-14.1,0-25.6-11.5-25.6-25.6S62.7,256,76.8,256h136.5
			c14.1,0,25.6,11.5,25.6,25.6V329.3z"/>
	</g>
</g>
</svg>
