<svg xmlns="http://www.w3.org/2000/svg" viewBox="0 0 491.35 512"><defs><style>.cls-1{fill:#ffda44;}</style></defs><title>Ресурс 1</title><g id="Слой_2" data-name="Слой 2"><g id="Capa_1" data-name="Capa 1"><path id="_Составной_контур_" data-name="&lt;Составной контур&gt;" class="cls-1" d="M304,447.42v15a23.73,23.73,0,0,1-20.12,23.49l-3.69,13.59A16.91,16.91,0,0,1,263.9,512H227.34A16.91,16.91,0,0,1,211,499.46l-3.58-13.59a23.83,23.83,0,0,1-20.23-23.6v-15a14.39,14.39,0,0,1,14.43-14.43h88A14.55,14.55,0,0,1,304,447.42Zm67.74-201.64a125.5,125.5,0,0,1-35.4,87.55,115.67,115.67,0,0,0-31,62.79,20.85,20.85,0,0,1-20.65,17.59H206.49a20.65,20.65,0,0,1-20.54-17.49,117,117,0,0,0-31.18-63,126.12,126.12,0,1,1,217-87.44ZM259.9,169.4a14.23,14.23,0,0,0-14.22-14.22,91.11,91.11,0,0,0-91,91,14.22,14.22,0,0,0,28.44,0,62.65,62.65,0,0,1,62.58-62.58A14.16,14.16,0,0,0,259.9,169.4ZM245.68,78.27A14.23,14.23,0,0,0,259.9,64.05V14.22a14.22,14.22,0,0,0-28.44,0V64.05A14.23,14.23,0,0,0,245.68,78.27ZM78.27,245.68a14.23,14.23,0,0,0-14.22-14.22H14.22a14.22,14.22,0,0,0,0,28.44H64.05A14.16,14.16,0,0,0,78.27,245.68Zm398.85-14.22H427.3a14.22,14.22,0,0,0,0,28.44h49.83a14.22,14.22,0,1,0,0-28.44ZM107.25,364.09,72,399.38A14.19,14.19,0,0,0,92,419.5l35.29-35.29a14.19,14.19,0,0,0-20-20.12ZM374.1,131.48a14.2,14.2,0,0,0,10-4.11L419.4,92.08A14.23,14.23,0,1,0,399.28,72L364,107.25a14.18,14.18,0,0,0,0,20.12A14.45,14.45,0,0,0,374.1,131.48Zm-266.85-4.21a14.19,14.19,0,0,0,20-20.12L92,71.85A14.23,14.23,0,1,0,71.85,92ZM384.11,364.09A14.23,14.23,0,0,0,364,384.21l35.29,35.29a14.19,14.19,0,0,0,20-20.12Z"/></g></g></svg>